<svg width="252" height="222" viewBox="0 0 252 222" fill="none" xmlns="http://www.w3.org/2000/svg">
<path d="M86.25 111.109C85.6771 124.078 82.0312 133.896 75.3125 140.562C68.5938 147.229 59.1146 150.562 46.875 150.562C34.0104 150.562 24.1406 146.344 17.2656 137.906C10.4427 129.417 7.03125 117.333 7.03125 101.656V82.5156C7.03125 66.8906 10.5729 54.8594 17.6562 46.4219C24.7396 37.9323 34.5833 33.6875 47.1875 33.6875C59.5833 33.6875 68.9844 37.151 75.3906 44.0781C81.849 51.0052 85.5208 60.9531 86.4062 73.9219H63.3594C63.151 65.901 61.901 60.3802 59.6094 57.3594C57.3698 54.2865 53.2292 52.75 47.1875 52.75C41.0417 52.75 36.6927 54.9115 34.1406 59.2344C31.5885 63.5052 30.2344 70.5625 30.0781 80.4062V101.891C30.0781 113.193 31.3281 120.953 33.8281 125.172C36.3802 129.391 40.7292 131.5 46.875 131.5C52.9167 131.5 57.0833 130.042 59.375 127.125C61.6667 124.156 62.9688 118.818 63.2812 111.109H86.25ZM156.953 106.031H166.641V124.391H156.953V149H134.844V124.391H97.1875L96.1719 110.094L134.766 35.25H156.953V106.031ZM117.656 106.031H134.844V67.9844L134.375 68.8438L117.656 106.031ZM177.266 104.156C177.266 90.3021 179.609 79.9635 184.297 73.1406C188.984 66.3177 195.807 62.9062 204.766 62.9062C211.276 62.9062 216.693 65.7188 221.016 71.3438V29H243.281V149H223.203L222.188 140.406C217.656 147.177 211.823 150.562 204.688 150.562C195.833 150.562 189.062 147.177 184.375 140.406C179.74 133.635 177.37 123.688 177.266 110.562V104.156ZM199.453 109.703C199.453 118.036 200.339 123.87 202.109 127.203C203.88 130.484 206.875 132.125 211.094 132.125C215.469 132.125 218.776 130.172 221.016 126.266V87.6719C218.828 83.5052 215.547 81.4219 211.172 81.4219C207.109 81.4219 204.141 83.0625 202.266 86.3438C200.391 89.625 199.453 95.4583 199.453 103.844V109.703Z" fill="#212224" fill-opacity="0.78"/>
<path d="M102.598 190.355H108.955C111.279 190.355 113.379 190.023 115.254 189.359C117.129 188.695 118.73 187.768 120.059 186.576C121.367 185.404 122.373 184.008 123.076 182.387C123.799 180.766 124.16 178.998 124.16 177.084C124.16 175.033 123.799 173.168 123.076 171.488C122.373 169.809 121.367 168.363 120.059 167.152C118.73 165.961 117.129 165.033 115.254 164.369C113.379 163.686 111.279 163.344 108.955 163.344H94.3652V206H102.598V190.355ZM102.598 183.676V170.023H108.955C110.127 170.023 111.143 170.209 112.002 170.58C112.861 170.951 113.584 171.459 114.17 172.104C114.736 172.748 115.156 173.5 115.43 174.359C115.723 175.219 115.869 176.146 115.869 177.143C115.869 178.002 115.723 178.832 115.43 179.633C115.156 180.414 114.736 181.107 114.17 181.713C113.584 182.318 112.861 182.797 112.002 183.148C111.143 183.5 110.127 183.676 108.955 183.676H102.598ZM152.93 173.715C150.801 173.715 148.838 174.232 147.041 175.268C145.244 176.283 143.701 177.689 142.412 179.486L142.354 178.783L142.031 174.301H134.443V206H142.588V186.957C142.959 186.059 143.428 185.277 143.994 184.613C144.561 183.949 145.244 183.402 146.045 182.973C146.709 182.602 147.461 182.328 148.301 182.152C149.16 181.957 150.117 181.859 151.172 181.859C152.188 181.859 153.252 181.928 154.365 182.064C155.498 182.182 156.602 182.367 157.676 182.621L158.877 174.506C158.232 174.311 157.383 174.135 156.328 173.979C155.293 173.803 154.16 173.715 152.93 173.715ZM165.088 189.857V190.473C165.088 192.797 165.42 194.945 166.084 196.918C166.748 198.871 167.725 200.57 169.014 202.016C170.283 203.461 171.846 204.594 173.701 205.414C175.576 206.215 177.705 206.615 180.088 206.615C182.451 206.615 184.561 206.215 186.416 205.414C188.271 204.594 189.834 203.461 191.104 202.016C192.373 200.57 193.34 198.871 194.004 196.918C194.668 194.945 195 192.797 195 190.473V189.857C195 187.553 194.668 185.424 194.004 183.471C193.34 181.498 192.373 179.789 191.104 178.344C189.814 176.898 188.242 175.766 186.387 174.945C184.531 174.125 182.412 173.715 180.029 173.715C177.646 173.715 175.527 174.125 173.672 174.945C171.836 175.766 170.283 176.898 169.014 178.344C167.725 179.789 166.748 181.498 166.084 183.471C165.42 185.424 165.088 187.553 165.088 189.857ZM173.232 190.473V189.857C173.232 188.568 173.359 187.348 173.613 186.195C173.867 185.043 174.268 184.027 174.814 183.148C175.361 182.27 176.064 181.576 176.924 181.068C177.783 180.561 178.818 180.307 180.029 180.307C181.26 180.307 182.305 180.561 183.164 181.068C184.023 181.576 184.727 182.27 185.273 183.148C185.801 184.027 186.191 185.043 186.445 186.195C186.699 187.348 186.826 188.568 186.826 189.857V190.473C186.826 191.801 186.699 193.051 186.445 194.223C186.191 195.375 185.801 196.381 185.273 197.24C184.727 198.119 184.023 198.812 183.164 199.32C182.305 199.828 181.279 200.082 180.088 200.082C178.857 200.082 177.803 199.828 176.924 199.32C176.064 198.812 175.361 198.119 174.814 197.24C174.268 196.381 173.867 195.375 173.613 194.223C173.359 193.051 173.232 191.801 173.232 190.473Z" fill="#FDE61B"/>
</svg>
